# Exported from ProBuilder
# http://www.procore3d.com/probuilder
# 11/1/2018 3:43:00 PM

mtllib ./Doctor2.mtl
o Doctor2

g Nose
v 0 0.1050509 0 1 1 1
v 0.05665719 -0.07013016 0.0618034 1 1 1
v -0.04334282 0.01908037 0.116726 1 1 1
v 0.05665719 -0.07013016 0.0618034 1 1 1
v 0.06498394 -0.1701302 0.1051462 1 1 1
v -0.03359728 -0.1083268 0.1618034 1 1 1
v 0.05665719 -0.07013016 0.0618034 1 1 1
v -0.03359728 -0.1083268 0.1618034 1 1 1
v -0.04334282 0.01908037 0.116726 1 1 1
v -0.04334282 0.01908037 0.116726 1 1 1
v -0.03359728 -0.1083268 0.1618034 1 1 1
v -0.1051462 -0.1007372 0.1701302 1 1 1
v 0 0.1050509 0 1 1 1
v -0.04334282 0.01908037 0.116726 1 1 1
v -0.1051462 0.2159977 0 1 1 1
v -0.04334282 0.01908037 0.116726 1 1 1
v -0.1051462 -0.1007372 0.1701302 1 1 1
v -0.1669496 0.01908037 0.116726 1 1 1
v -0.04334282 0.01908037 0.116726 1 1 1
v -0.1669496 0.01908037 0.116726 1 1 1
v -0.1051462 0.2159977 0 1 1 1
v -0.1051462 0.2159977 0 1 1 1
v -0.1669496 0.01908037 0.116726 1 1 1
v -0.2102924 0.1050509 0 1 1 1
v 0 0.1050509 0 1 1 1
v -0.1051462 0.2159977 0 1 1 1
v -0.04334282 -0.008326754 -0.1 1 1 1
v -0.1051462 0.2159977 0 1 1 1
v -0.2102924 0.1050509 0 1 1 1
v -0.1669496 -0.008326754 -0.1 1 1 1
v -0.1051462 0.2159977 0 1 1 1
v -0.1669496 -0.008326754 -0.1 1 1 1
v -0.04334282 -0.008326754 -0.1 1 1 1
v -0.04334282 -0.008326754 -0.1 1 1 1
v -0.1669496 -0.008326754 -0.1 1 1 1
v -0.1051462 -0.06498394 -0.1701302 1 1 1
v 0 0.1050509 0 1 1 1
v -0.04334282 -0.008326754 -0.1 1 1 1
v 0.05665719 -0.001289552 -0.0618034 1 1 1
v -0.04334282 -0.008326754 -0.1 1 1 1
v -0.1051462 -0.06498394 -0.1701302 1 1 1
v -0.00514622 -0.1083268 -0.1618034 1 1 1
v -0.04334282 -0.008326754 -0.1 1 1 1
v -0.00514622 -0.1083268 -0.1618034 1 1 1
v 0.05665719 -0.001289552 -0.0618034 1 1 1
v 0.05665719 -0.001289552 -0.0618034 1 1 1
v -0.00514622 -0.1083268 -0.1618034 1 1 1
v 0.06498394 -0.1701302 -0.1051462 1 1 1
v 0 0.1050509 0 1 1 1
v 0.05665719 -0.001289552 -0.0618034 1 1 1
v 0.05665719 -0.07013016 0.0618034 1 1 1
v 0.05665719 -0.001289552 -0.0618034 1 1 1
v 0.06498394 -0.1701302 -0.1051462 1 1 1
v 0.09485378 -0.1701302 0 1 1 1
v 0.05665719 -0.001289552 -0.0618034 1 1 1
v 0.09485378 -0.1701302 0 1 1 1
v 0.05665719 -0.07013016 0.0618034 1 1 1
v 0.05665719 -0.07013016 0.0618034 1 1 1
v 0.09485378 -0.1701302 0 1 1 1
v 0.06498394 -0.1701302 0.1051462 1 1 1
v -0.2102924 0.1050509 0 1 1 1
v -0.1669496 0.01908037 0.116726 1 1 1
v -0.2669496 -0.07013016 0.0618034 1 1 1
v -0.1669496 0.01908037 0.116726 1 1 1
v -0.1051462 -0.1007372 0.1701302 1 1 1
v -0.1766952 -0.1083268 0.1618034 1 1 1
v -0.1669496 0.01908037 0.116726 1 1 1
v -0.1766952 -0.1083268 0.1618034 1 1 1
v -0.2669496 -0.07013016 0.0618034 1 1 1
v -0.2669496 -0.07013016 0.0618034 1 1 1
v -0.1766952 -0.1083268 0.1618034 1 1 1
v -0.2752764 -0.1701302 0.1051462 1 1 1
v -0.1051462 -0.1007372 0.1701302 1 1 1
v -0.03359728 -0.1083268 0.1618034 1 1 1
v -0.1051462 -0.1766739 0.1870667 1 1 1
v -0.03359728 -0.1083268 0.1618034 1 1 1
v 0.06498394 -0.1701302 0.1051462 1 1 1
v -0.03359728 -0.2319336 0.1618034 1 1 1
v -0.03359728 -0.1083268 0.1618034 1 1 1
v -0.03359728 -0.2319336 0.1618034 1 1 1
v -0.1051462 -0.1766739 0.1870667 1 1 1
v -0.1051462 -0.1766739 0.1870667 1 1 1
v -0.03359728 -0.2319336 0.1618034 1 1 1
v -0.1051462 -0.2395231 0.1701302 1 1 1
v 0.06498394 -0.1701302 0.1051462 1 1 1
v 0.09485378 -0.1701302 0 1 1 1
v 0.05665719 -0.2701302 0.0618034 1 1 1
v 0.09485378 -0.1701302 0 1 1 1
v 0.06498394 -0.1701302 -0.1051462 1 1 1
v 0.05665719 -0.2701302 -0.0618034 1 1 1
v 0.09485378 -0.1701302 0 1 1 1
v 0.05665719 -0.2701302 -0.0618034 1 1 1
v 0.05665719 -0.2701302 0.0618034 1 1 1
v 0.05665719 -0.2701302 0.0618034 1 1 1
v 0.05665719 -0.2701302 -0.0618034 1 1 1
v 0 -0.3220671 0 1 1 1
v 0.06498394 -0.1701302 -0.1051462 1 1 1
v -0.00514622 -0.1083268 -0.1618034 1 1 1
v -0.00514622 -0.2319336 -0.1618034 1 1 1
v -0.00514622 -0.1083268 -0.1618034 1 1 1
v -0.1051462 -0.06498394 -0.1701302 1 1 1
v -0.1051462 -0.1701302 -0.2 1 1 1
v -0.00514622 -0.1083268 -0.1618034 1 1 1
v -0.1051462 -0.1701302 -0.2 1 1 1
v -0.00514622 -0.2319336 -0.1618034 1 1 1
v -0.00514622 -0.2319336 -0.1618034 1 1 1
v -0.1051462 -0.1701302 -0.2 1 1 1
v -0.1051462 -0.2752764 -0.1701302 1 1 1
v -0.1051462 -0.06498394 -0.1701302 1 1 1
v -0.1669496 -0.008326754 -0.1 1 1 1
v -0.2051462 -0.1083268 -0.1618034 1 1 1
v -0.1669496 -0.008326754 -0.1 1 1 1
v -0.2102924 0.1050509 0 1 1 1
v -0.2669496 -0.001289552 -0.0618034 1 1 1
v -0.1669496 -0.008326754 -0.1 1 1 1
v -0.2669496 -0.001289552 -0.0618034 1 1 1
v -0.2051462 -0.1083268 -0.1618034 1 1 1
v -0.2051462 -0.1083268 -0.1618034 1 1 1
v -0.2669496 -0.001289552 -0.0618034 1 1 1
v -0.2752764 -0.1701302 -0.1051462 1 1 1
v -0.2102924 -0.3220671 0 1 1 1
v -0.2669496 -0.2701302 0.0618034 1 1 1
v -0.1669496 -0.3137404 0.1 1 1 1
v -0.2669496 -0.2701302 0.0618034 1 1 1
v -0.2752764 -0.1701302 0.1051462 1 1 1
v -0.1766952 -0.2319336 0.1618034 1 1 1
v -0.2669496 -0.2701302 0.0618034 1 1 1
v -0.1766952 -0.2319336 0.1618034 1 1 1
v -0.1669496 -0.3137404 0.1 1 1 1
v -0.1669496 -0.3137404 0.1 1 1 1
v -0.1766952 -0.2319336 0.1618034 1 1 1
v -0.1051462 -0.2395231 0.1701302 1 1 1
v -0.2102924 -0.3220671 0 1 1 1
v -0.1669496 -0.3137404 0.1 1 1 1
v -0.1051462 -0.351937 0 1 1 1
v -0.1669496 -0.3137404 0.1 1 1 1
v -0.1051462 -0.2395231 0.1701302 1 1 1
v -0.04334282 -0.3137404 0.1 1 1 1
v -0.1669496 -0.3137404 0.1 1 1 1
v -0.04334282 -0.3137404 0.1 1 1 1
v -0.1051462 -0.351937 0 1 1 1
v -0.1051462 -0.351937 0 1 1 1
v -0.04334282 -0.3137404 0.1 1 1 1
v 0 -0.3220671 0 1 1 1
v -0.2102924 -0.3220671 0 1 1 1
v -0.1051462 -0.351937 0 1 1 1
v -0.1669496 -0.3319336 -0.1 1 1 1
v -0.1051462 -0.351937 0 1 1 1
v 0 -0.3220671 0 1 1 1
v -0.04334282 -0.3319336 -0.1 1 1 1
v -0.1051462 -0.351937 0 1 1 1
v -0.04334282 -0.3319336 -0.1 1 1 1
v -0.1669496 -0.3319336 -0.1 1 1 1
v -0.1669496 -0.3319336 -0.1 1 1 1
v -0.04334282 -0.3319336 -0.1 1 1 1
v -0.1051462 -0.2752764 -0.1701302 1 1 1
v -0.2102924 -0.3220671 0 1 1 1
v -0.1669496 -0.3319336 -0.1 1 1 1
v -0.2669496 -0.2701302 -0.0618034 1 1 1
v -0.1669496 -0.3319336 -0.1 1 1 1
v -0.1051462 -0.2752764 -0.1701302 1 1 1
v -0.2051462 -0.2319336 -0.1618034 1 1 1
v -0.1669496 -0.3319336 -0.1 1 1 1
v -0.2051462 -0.2319336 -0.1618034 1 1 1
v -0.2669496 -0.2701302 -0.0618034 1 1 1
v -0.2669496 -0.2701302 -0.0618034 1 1 1
v -0.2051462 -0.2319336 -0.1618034 1 1 1
v -0.2752764 -0.1701302 -0.1051462 1 1 1
v -0.2102924 -0.3220671 0 1 1 1
v -0.2669496 -0.2701302 -0.0618034 1 1 1
v -0.2669496 -0.2701302 0.0618034 1 1 1
v -0.2669496 -0.2701302 -0.0618034 1 1 1
v -0.2752764 -0.1701302 -0.1051462 1 1 1
v -0.3051462 -0.1701302 0 1 1 1
v -0.2669496 -0.2701302 -0.0618034 1 1 1
v -0.3051462 -0.1701302 0 1 1 1
v -0.2669496 -0.2701302 0.0618034 1 1 1
v -0.2669496 -0.2701302 0.0618034 1 1 1
v -0.3051462 -0.1701302 0 1 1 1
v -0.2752764 -0.1701302 0.1051462 1 1 1
v -0.1051462 -0.2395231 0.1701302 1 1 1
v -0.1766952 -0.2319336 0.1618034 1 1 1
v -0.1051462 -0.1766739 0.1870667 1 1 1
v -0.1766952 -0.2319336 0.1618034 1 1 1
v -0.2752764 -0.1701302 0.1051462 1 1 1
v -0.1766952 -0.1083268 0.1618034 1 1 1
v -0.1766952 -0.2319336 0.1618034 1 1 1
v -0.1766952 -0.1083268 0.1618034 1 1 1
v -0.1051462 -0.1766739 0.1870667 1 1 1
v -0.1051462 -0.1766739 0.1870667 1 1 1
v -0.1766952 -0.1083268 0.1618034 1 1 1
v -0.1051462 -0.1007372 0.1701302 1 1 1
v 0 -0.3220671 0 1 1 1
v -0.04334282 -0.3137404 0.1 1 1 1
v 0.05665719 -0.2701302 0.0618034 1 1 1
v -0.04334282 -0.3137404 0.1 1 1 1
v -0.1051462 -0.2395231 0.1701302 1 1 1
v -0.03359728 -0.2319336 0.1618034 1 1 1
v -0.04334282 -0.3137404 0.1 1 1 1
v -0.03359728 -0.2319336 0.1618034 1 1 1
v 0.05665719 -0.2701302 0.0618034 1 1 1
v 0.05665719 -0.2701302 0.0618034 1 1 1
v -0.03359728 -0.2319336 0.1618034 1 1 1
v 0.06498394 -0.1701302 0.1051462 1 1 1
v -0.1051462 -0.2752764 -0.1701302 1 1 1
v -0.04334282 -0.3319336 -0.1 1 1 1
v -0.00514622 -0.2319336 -0.1618034 1 1 1
v -0.04334282 -0.3319336 -0.1 1 1 1
v 0 -0.3220671 0 1 1 1
v 0.05665719 -0.2701302 -0.0618034 1 1 1
v -0.04334282 -0.3319336 -0.1 1 1 1
v 0.05665719 -0.2701302 -0.0618034 1 1 1
v -0.00514622 -0.2319336 -0.1618034 1 1 1
v -0.00514622 -0.2319336 -0.1618034 1 1 1
v 0.05665719 -0.2701302 -0.0618034 1 1 1
v 0.06498394 -0.1701302 -0.1051462 1 1 1
v -0.2752764 -0.1701302 -0.1051462 1 1 1
v -0.2051462 -0.2319336 -0.1618034 1 1 1
v -0.2051462 -0.1083268 -0.1618034 1 1 1
v -0.2051462 -0.2319336 -0.1618034 1 1 1
v -0.1051462 -0.2752764 -0.1701302 1 1 1
v -0.1051462 -0.1701302 -0.2 1 1 1
v -0.2051462 -0.2319336 -0.1618034 1 1 1
v -0.1051462 -0.1701302 -0.2 1 1 1
v -0.2051462 -0.1083268 -0.1618034 1 1 1
v -0.2051462 -0.1083268 -0.1618034 1 1 1
v -0.1051462 -0.1701302 -0.2 1 1 1
v -0.1051462 -0.06498394 -0.1701302 1 1 1
v -0.2752764 -0.1701302 0.1051462 1 1 1
v -0.3051462 -0.1701302 0 1 1 1
v -0.2669496 -0.07013016 0.0618034 1 1 1
v -0.3051462 -0.1701302 0 1 1 1
v -0.2752764 -0.1701302 -0.1051462 1 1 1
v -0.2669496 -0.001289552 -0.0618034 1 1 1
v -0.3051462 -0.1701302 0 1 1 1
v -0.2669496 -0.001289552 -0.0618034 1 1 1
v -0.2669496 -0.07013016 0.0618034 1 1 1
v -0.2669496 -0.07013016 0.0618034 1 1 1
v -0.2669496 -0.001289552 -0.0618034 1 1 1
v -0.2102924 0.1050509 0 1 1 1

vn 0.6975634 0.42827 0.5744478
vn 0.6975634 0.42827 0.5744478
vn 0.6975634 0.42827 0.5744478
vn 0.6229255 0.3541883 0.697506
vn 0.6229255 0.3541883 0.697506
vn 0.6229255 0.3541883 0.697506
vn 0.649548 0.2972769 0.6997957
vn 0.649548 0.2972769 0.6997957
vn 0.649548 0.2972769 0.6997957
vn 0.1442064 0.339844 0.9293603
vn 0.1442064 0.339844 0.9293603
vn 0.1442064 0.339844 0.9293603
vn 0.5733852 0.543407 0.613138
vn 0.5733852 0.543407 0.613138
vn 0.5733852 0.543407 0.613138
vn 0 0.4071054 0.9133812
vn 0 0.4071054 0.9133812
vn 0 0.4071054 0.9133812
vn 0 0.509913 0.8602261
vn 0 0.509913 0.8602261
vn 0 0.509913 0.8602261
vn -0.5733852 0.543407 0.613138
vn -0.5733852 0.543407 0.613138
vn -0.5733852 0.543407 0.613138
vn 0.4895838 0.4639871 -0.7382571
vn 0.4895838 0.4639871 -0.7382571
vn 0.4895838 0.4639871 -0.7382571
vn -0.4895838 0.4639871 -0.7382571
vn -0.4895838 0.4639871 -0.7382571
vn -0.4895838 0.4639871 -0.7382571
vn 0 0.407159 -0.9133573
vn 0 0.407159 -0.9133573
vn 0 0.407159 -0.9133573
vn 0 0.7778675 -0.6284284
vn 0 0.7778675 -0.6284284
vn 0 0.7778675 -0.6284284
vn 0.2536209 0.5835051 -0.7714909
vn 0.2536209 0.5835051 -0.7714909
vn 0.2536209 0.5835051 -0.7714909
vn 0.3150938 0.5831288 -0.7487835
vn 0.3150938 0.5831288 -0.7487835
vn 0.3150938 0.5831288 -0.7487835
vn 0.2556694 0.5770435 -0.7756636
vn 0.2556694 0.5770435 -0.7756636
vn 0.2556694 0.5770435 -0.7756636
vn 0.7183603 0.2060028 -0.6644708
vn 0.7183603 0.2060028 -0.6644708
vn 0.7183603 0.2060028 -0.6644708
vn 0.9082418 0.3655736 0.2035997
vn 0.9082418 0.3655736 0.2035997
vn 0.9082418 0.3655736 0.2035997
vn 0.9553559 0.1167853 -0.2713966
vn 0.9553559 0.1167853 -0.2713966
vn 0.9553559 0.1167853 -0.2713966
vn 0.9509627 0.2702236 0.1504962
vn 0.9509627 0.2702236 0.1504962
vn 0.9509627 0.2702236 0.1504962
vn 0.9435222 0.1947386 0.2680349
vn 0.9435222 0.1947386 0.2680349
vn 0.9435222 0.1947386 0.2680349
vn -0.6975634 0.42827 0.5744477
vn -0.6975634 0.42827 0.5744477
vn -0.6975634 0.42827 0.5744477
vn -0.1442064 0.339844 0.9293603
vn -0.1442064 0.339844 0.9293603
vn -0.1442064 0.339844 0.9293603
vn -0.6495481 0.2972769 0.6997957
vn -0.6495481 0.2972769 0.6997957
vn -0.6495481 0.2972769 0.6997957
vn -0.6229255 0.3541883 0.697506
vn -0.6229255 0.3541883 0.697506
vn -0.6229255 0.3541883 0.697506
vn 0.1354196 0.2156814 0.967028
vn 0.1354196 0.2156814 0.967028
vn 0.1354196 0.2156814 0.967028
vn 0.4982926 0 0.867009
vn 0.4982926 0 0.867009
vn 0.4982926 0 0.867009
vn 0.332946 0 0.9429458
vn 0.332946 0 0.9429458
vn 0.332946 0 0.9429458
vn 0.1386189 -0.257685 0.9562339
vn 0.1386189 -0.257685 0.9562339
vn 0.1386189 -0.257685 0.9562339
vn 0.9435222 -0.1947387 0.2680349
vn 0.9435222 -0.1947387 0.2680349
vn 0.9435222 -0.1947387 0.2680349
vn 0.9435223 -0.1947387 -0.2680349
vn 0.9435223 -0.1947387 -0.2680349
vn 0.9435223 -0.1947387 -0.2680349
vn 0.9341723 -0.356822 0
vn 0.9341723 -0.356822 0
vn 0.9341723 -0.356822 0
vn 0.6757333 -0.7371461 0
vn 0.6757333 -0.7371461 0
vn 0.6757333 -0.7371461 0
vn 0.6284283 0 -0.7778675
vn 0.6284283 0 -0.7778675
vn 0.6284283 0 -0.7778675
vn 0.1947386 0.2680349 -0.9435222
vn 0.1947386 0.2680349 -0.9435222
vn 0.1947386 0.2680349 -0.9435222
vn 0.356822 0 -0.9341724
vn 0.356822 0 -0.9341724
vn 0.356822 0 -0.9341724
vn 0.1947387 -0.2680349 -0.9435222
vn 0.1947387 -0.2680349 -0.9435222
vn 0.1947387 -0.2680349 -0.9435222
vn -0.3150938 0.5831288 -0.7487835
vn -0.3150938 0.5831288 -0.7487835
vn -0.3150938 0.5831288 -0.7487835
vn -0.2536209 0.5835052 -0.771491
vn -0.2536209 0.5835052 -0.771491
vn -0.2536209 0.5835052 -0.771491
vn -0.2556694 0.5770435 -0.7756636
vn -0.2556694 0.5770435 -0.7756636
vn -0.2556694 0.5770435 -0.7756636
vn -0.7183602 0.2060029 -0.6644707
vn -0.7183602 0.2060029 -0.6644707
vn -0.7183602 0.2060029 -0.6644707
vn -0.4704131 -0.8389133 0.2737446
vn -0.4704131 -0.8389133 0.2737446
vn -0.4704131 -0.8389133 0.2737446
vn -0.6229256 -0.3541883 0.6975058
vn -0.6229256 -0.3541883 0.6975058
vn -0.6229256 -0.3541883 0.6975058
vn -0.4973101 -0.5599084 0.6627104
vn -0.4973101 -0.5599084 0.6627104
vn -0.4973101 -0.5599084 0.6627104
vn -0.1550982 -0.607197 0.7792666
vn -0.1550982 -0.607197 0.7792666
vn -0.1550982 -0.607197 0.7792666
vn -0.268035 -0.9435222 0.1947388
vn -0.268035 -0.9435222 0.1947388
vn -0.268035 -0.9435222 0.1947388
vn 0 -0.6868103 0.7268367
vn 0 -0.6868103 0.7268367
vn 0 -0.6868103 0.7268367
vn 0 -0.9341723 0.3568223
vn 0 -0.9341723 0.3568223
vn 0 -0.9341723 0.3568223
vn 0.268035 -0.9435221 0.1947388
vn 0.268035 -0.9435221 0.1947388
vn 0.268035 -0.9435221 0.1947388
vn -0.273191 -0.9616721 -0.02352611
vn -0.273191 -0.9616721 -0.02352611
vn -0.273191 -0.9616721 -0.02352611
vn 0.273191 -0.9616721 -0.02352613
vn 0.273191 -0.9616721 -0.02352613
vn 0.273191 -0.9616721 -0.02352613
vn 0 -0.9805741 -0.1961486
vn 0 -0.9805741 -0.1961486
vn 0 -0.9805741 -0.1961486
vn 0 -0.7778676 -0.6284282
vn 0 -0.7778676 -0.6284282
vn 0 -0.7778676 -0.6284282
vn -0.5632231 -0.8098227 -0.1642162
vn -0.5632231 -0.8098227 -0.1642162
vn -0.5632231 -0.8098227 -0.1642162
vn -0.3150939 -0.5831289 -0.7487835
vn -0.3150939 -0.5831289 -0.7487835
vn -0.3150939 -0.5831289 -0.7487835
vn -0.5773503 -0.5773503 -0.5773503
vn -0.5773503 -0.5773503 -0.5773503
vn -0.5773503 -0.5773503 -0.5773503
vn -0.7487836 -0.3150939 -0.5831288
vn -0.7487836 -0.3150939 -0.5831288
vn -0.7487836 -0.3150939 -0.5831288
vn -0.6757333 -0.7371461 0
vn -0.6757333 -0.7371461 0
vn -0.6757333 -0.7371461 0
vn -0.9435223 -0.1947388 -0.2680348
vn -0.9435223 -0.1947388 -0.2680348
vn -0.9435223 -0.1947388 -0.2680348
vn -0.9341723 -0.356822 0
vn -0.9341723 -0.356822 0
vn -0.9341723 -0.356822 0
vn -0.9435223 -0.1947388 0.2680348
vn -0.9435223 -0.1947388 0.2680348
vn -0.9435223 -0.1947388 0.2680348
vn -0.1386189 -0.2576849 0.9562338
vn -0.1386189 -0.2576849 0.9562338
vn -0.1386189 -0.2576849 0.9562338
vn -0.4982926 0 0.867009
vn -0.4982926 0 0.867009
vn -0.4982926 0 0.867009
vn -0.332946 0 0.9429458
vn -0.332946 0 0.9429458
vn -0.332946 0 0.9429458
vn -0.1354196 0.2156814 0.9670279
vn -0.1354196 0.2156814 0.9670279
vn -0.1354196 0.2156814 0.9670279
vn 0.470413 -0.8389133 0.2737446
vn 0.470413 -0.8389133 0.2737446
vn 0.470413 -0.8389133 0.2737446
vn 0.1550982 -0.607197 0.7792665
vn 0.1550982 -0.607197 0.7792665
vn 0.1550982 -0.607197 0.7792665
vn 0.4973101 -0.5599084 0.6627105
vn 0.4973101 -0.5599084 0.6627105
vn 0.4973101 -0.5599084 0.6627105
vn 0.6229256 -0.3541883 0.6975058
vn 0.6229256 -0.3541883 0.6975058
vn 0.6229256 -0.3541883 0.6975058
vn 0.3150939 -0.5831289 -0.7487835
vn 0.3150939 -0.5831289 -0.7487835
vn 0.3150939 -0.5831289 -0.7487835
vn 0.563223 -0.8098227 -0.1642163
vn 0.563223 -0.8098227 -0.1642163
vn 0.563223 -0.8098227 -0.1642163
vn 0.5773503 -0.5773503 -0.5773503
vn 0.5773503 -0.5773503 -0.5773503
vn 0.5773503 -0.5773503 -0.5773503
vn 0.7487835 -0.3150938 -0.5831288
vn 0.7487835 -0.3150938 -0.5831288
vn 0.7487835 -0.3150938 -0.5831288
vn -0.6284283 0 -0.7778675
vn -0.6284283 0 -0.7778675
vn -0.6284283 0 -0.7778675
vn -0.1947387 -0.2680349 -0.9435222
vn -0.1947387 -0.2680349 -0.9435222
vn -0.1947387 -0.2680349 -0.9435222
vn -0.356822 0 -0.9341724
vn -0.356822 0 -0.9341724
vn -0.356822 0 -0.9341724
vn -0.1947386 0.2680349 -0.9435222
vn -0.1947386 0.2680349 -0.9435222
vn -0.1947386 0.2680349 -0.9435222
vn -0.9435222 0.1947387 0.2680348
vn -0.9435222 0.1947387 0.2680348
vn -0.9435222 0.1947387 0.2680348
vn -0.9553559 0.1167854 -0.2713965
vn -0.9553559 0.1167854 -0.2713965
vn -0.9553559 0.1167854 -0.2713965
vn -0.9509627 0.2702236 0.1504962
vn -0.9509627 0.2702236 0.1504962
vn -0.9509627 0.2702236 0.1504962
vn -0.9082418 0.3655736 0.2035997
vn -0.9082418 0.3655736 0.2035997
vn -0.9082418 0.3655736 0.2035997

vt -0.1051462 0
vt -0.1618034 0.0618034
vt -0.0618034 0.1
vt -0.0618034 0.1
vt -0.1051462 0
vt -0.1618034 0.0618034
vt 0.1618034 0.1
vt 0.1 0.0618034
vt 0.0618034 0.1618034
vt 0.0618034 0.1618034
vt 0.1 0.0618034
vt 0 0.1051462
vt -0.1051462 0
vt -0.0618034 0.1
vt 0 0
vt -0.0618034 0.1
vt 0 0.1701302
vt 0.0618034 0.1
vt -0.0618034 0.1
vt 0.0618034 0.1
vt 0 0
vt 0 0
vt 0.0618034 0.1
vt 0.1051462 0
vt -0.1051462 0
vt 0 0
vt -0.0618034 -0.1
vt 0 0
vt 0.1051462 0
vt 0.0618034 -0.1
vt 0 0
vt 0.0618034 -0.1
vt -0.0618034 -0.1
vt -0.0618034 -0.1
vt 0.0618034 -0.1
vt 0 -0.1701302
vt -0.1051462 0
vt -0.0618034 -0.1
vt -0.1618034 -0.0618034
vt -0.0618034 0.1618034
vt 0 0.1051462
vt -0.1 0.0618034
vt -0.0618034 0.1618034
vt -0.1 0.0618034
vt -0.1618034 0.1
vt 0.0618034 0.1
vt 0.1618034 0.0618034
vt 0.1051462 0
vt 0 0.1701302
vt 0.0618034 0.1
vt -0.0618034 0.1
vt 0.0618034 0.1
vt 0.1051462 0
vt 0 0
vt 0.0618034 0.1
vt 0 0
vt -0.0618034 0.1
vt -0.0618034 0.1
vt 0 0
vt -0.1051462 0
vt 0.1051462 0
vt 0.0618034 0.1
vt 0.1618034 0.0618034
vt -0.0618034 0.1618034
vt 0 0.1051462
vt -0.1 0.0618034
vt -0.0618034 0.1618034
vt -0.1 0.0618034
vt -0.1618034 0.1
vt 0.0618034 0.1
vt 0.1618034 0.0618034
vt 0.1051462 0
vt 0 0.1051462
vt 0.1 0.0618034
vt 0 0
vt 0.1 0.0618034
vt 0.1701302 0
vt 0.1 -0.0618034
vt 0.1 0.0618034
vt 0.1 -0.0618034
vt 0 0
vt 0 0
vt 0.1 -0.0618034
vt 0 -0.1051462
vt -0.1051462 0
vt 0 0
vt -0.0618034 -0.1
vt 0 0
vt 0.1051462 0
vt 0.0618034 -0.1
vt 0 0
vt 0.0618034 -0.1
vt -0.0618034 -0.1
vt -0.0618034 -0.1
vt 0.0618034 -0.1
vt 0 -0.1701302
vt -0.1701302 0
vt -0.1 0.0618034
vt -0.1 -0.0618034
vt -0.1 0.0618034
vt 0 0.1051462
vt 0 0
vt -0.1 0.0618034
vt 0 0
vt -0.1 -0.0618034
vt -0.1 -0.0618034
vt 0 0
vt 0 -0.1051462
vt 0 0.1051462
vt 0.0618034 0.1618034
vt 0.1 0.0618034
vt 0.0618034 -0.1
vt 0.1051462 0
vt 0.1618034 -0.0618034
vt 0.0618034 0.1618034
vt 0.1618034 0.1
vt 0.1 0.0618034
vt -0.1618034 0.0618034
vt -0.0618034 0.1
vt -0.1051462 0
vt -0.1051462 0
vt -0.1618034 0.0618034
vt -0.0618034 0.1
vt 0.0618034 -0.1
vt 0.1051462 0
vt 0.1618034 -0.0618034
vt -0.1618034 -0.1
vt -0.1 -0.0618034
vt -0.0618034 -0.1618034
vt -0.0618034 -0.1618034
vt -0.1 -0.0618034
vt 0 -0.1051462
vt -0.1051462 0
vt -0.0618034 0.1
vt 0 0
vt -0.0618034 0.1
vt 0 0.1701302
vt 0.0618034 0.1
vt -0.0618034 0.1
vt 0.0618034 0.1
vt 0 0
vt 0 0
vt 0.0618034 0.1
vt 0.1051462 0
vt -0.1051462 0
vt 0 0
vt -0.0618034 -0.1
vt 0 0
vt 0.1051462 0
vt 0.0618034 -0.1
vt 0 0
vt 0.0618034 -0.1
vt -0.0618034 -0.1
vt -0.0618034 -0.1
vt 0.0618034 -0.1
vt 0 -0.1701302
vt -0.1051462 0
vt -0.0618034 -0.1
vt -0.1618034 -0.0618034
vt 0.0618034 -0.1618034
vt 0 -0.1051462
vt 0.1 -0.0618034
vt 0.0618034 -0.1618034
vt 0.1 -0.0618034
vt 0.1618034 -0.1
vt -0.0618034 -0.1
vt -0.1618034 -0.0618034
vt -0.1051462 0
vt 0 -0.1701302
vt -0.0618034 -0.1
vt 0.0618034 -0.1
vt -0.0618034 -0.1
vt -0.1051462 0
vt 0 0
vt -0.0618034 -0.1
vt 0 0
vt 0.0618034 -0.1
vt 0.0618034 -0.1
vt 0 0
vt 0.1051462 0
vt 0 -0.1051462
vt -0.1 -0.0618034
vt 0 0
vt -0.1 -0.0618034
vt -0.1701302 0
vt -0.1 0.0618034
vt -0.1 -0.0618034
vt -0.1 0.0618034
vt 0 0
vt 0 0
vt -0.1 0.0618034
vt 0 0.1051462
vt 0.1051462 0
vt 0.0618034 0.1
vt 0.1618034 0.0618034
vt 0.0618034 -0.1618034
vt 0 -0.1051462
vt 0.1 -0.0618034
vt 0.0618034 -0.1618034
vt 0.1 -0.0618034
vt 0.1618034 -0.1
vt -0.0618034 -0.1
vt -0.1618034 -0.0618034
vt -0.1051462 0
vt 0 -0.1051462
vt -0.0618034 -0.1618034
vt -0.1 -0.0618034
vt 0.0618034 -0.1
vt 0.1051462 0
vt 0.1618034 -0.0618034
vt -0.0618034 -0.1618034
vt -0.1618034 -0.1
vt -0.1 -0.0618034
vt 0.1618034 -0.0618034
vt 0.0618034 -0.1
vt 0.1051462 0
vt 0.1701302 0
vt 0.1 -0.0618034
vt 0.1 0.0618034
vt 0.1 -0.0618034
vt 0 -0.1051462
vt 0 0
vt 0.1 -0.0618034
vt 0 0
vt 0.1 0.0618034
vt 0.1 0.0618034
vt 0 0
vt 0 0.1051462
vt 0.1051462 0
vt 0 0
vt 0.0618034 0.1
vt 0 0
vt -0.1051462 0
vt -0.0618034 0.1
vt 0 0
vt -0.0618034 0.1
vt 0.0618034 0.1
vt 0.0618034 0.1
vt -0.0618034 0.1
vt 0 0.1701302

g Nose
usemtl PolybrushMat
f 3/3/3 2/2/2 1/1/1
f 6/6/6 5/5/5 4/4/4
f 9/9/9 8/8/8 7/7/7
f 12/12/12 11/11/11 10/10/10
f 15/15/15 14/14/14 13/13/13
f 18/18/18 17/17/17 16/16/16
f 21/21/21 20/20/20 19/19/19
f 24/24/24 23/23/23 22/22/22
f 27/27/27 26/26/26 25/25/25
f 30/30/30 29/29/29 28/28/28
f 33/33/33 32/32/32 31/31/31
f 36/36/36 35/35/35 34/34/34
f 39/39/39 38/38/38 37/37/37
f 42/42/42 41/41/41 40/40/40
f 45/45/45 44/44/44 43/43/43
f 48/48/48 47/47/47 46/46/46
f 51/51/51 50/50/50 49/49/49
f 54/54/54 53/53/53 52/52/52
f 57/57/57 56/56/56 55/55/55
f 60/60/60 59/59/59 58/58/58
f 63/63/63 62/62/62 61/61/61
f 66/66/66 65/65/65 64/64/64
f 69/69/69 68/68/68 67/67/67
f 72/72/72 71/71/71 70/70/70
f 75/75/75 74/74/74 73/73/73
f 78/78/78 77/77/77 76/76/76
f 81/81/81 80/80/80 79/79/79
f 84/84/84 83/83/83 82/82/82
f 87/87/87 86/86/86 85/85/85
f 90/90/90 89/89/89 88/88/88
f 93/93/93 92/92/92 91/91/91
f 96/96/96 95/95/95 94/94/94
f 99/99/99 98/98/98 97/97/97
f 102/102/102 101/101/101 100/100/100
f 105/105/105 104/104/104 103/103/103
f 108/108/108 107/107/107 106/106/106
f 111/111/111 110/110/110 109/109/109
f 114/114/114 113/113/113 112/112/112
f 117/117/117 116/116/116 115/115/115
f 120/120/120 119/119/119 118/118/118
f 123/123/123 122/122/122 121/121/121
f 126/126/126 125/125/125 124/124/124
f 129/129/129 128/128/128 127/127/127
f 132/132/132 131/131/131 130/130/130
f 135/135/135 134/134/134 133/133/133
f 138/138/138 137/137/137 136/136/136
f 141/141/141 140/140/140 139/139/139
f 144/144/144 143/143/143 142/142/142
f 147/147/147 146/146/146 145/145/145
f 150/150/150 149/149/149 148/148/148
f 153/153/153 152/152/152 151/151/151
f 156/156/156 155/155/155 154/154/154
f 159/159/159 158/158/158 157/157/157
f 162/162/162 161/161/161 160/160/160
f 165/165/165 164/164/164 163/163/163
f 168/168/168 167/167/167 166/166/166
f 171/171/171 170/170/170 169/169/169
f 174/174/174 173/173/173 172/172/172
f 177/177/177 176/176/176 175/175/175
f 180/180/180 179/179/179 178/178/178
f 183/183/183 182/182/182 181/181/181
f 186/186/186 185/185/185 184/184/184
f 189/189/189 188/188/188 187/187/187
f 192/192/192 191/191/191 190/190/190
f 195/195/195 194/194/194 193/193/193
f 198/198/198 197/197/197 196/196/196
f 201/201/201 200/200/200 199/199/199
f 204/204/204 203/203/203 202/202/202
f 207/207/207 206/206/206 205/205/205
f 210/210/210 209/209/209 208/208/208
f 213/213/213 212/212/212 211/211/211
f 216/216/216 215/215/215 214/214/214
f 219/219/219 218/218/218 217/217/217
f 222/222/222 221/221/221 220/220/220
f 225/225/225 224/224/224 223/223/223
f 228/228/228 227/227/227 226/226/226
f 231/231/231 230/230/230 229/229/229
f 234/234/234 233/233/233 232/232/232
f 237/237/237 236/236/236 235/235/235
f 240/240/240 239/239/239 238/238/238

