# Exported from ProBuilder
# http://www.procore3d.com/probuilder
# 10/25/2018 4:17:27 PM

mtllib ./Tile_obj.mtl
o Tile_obj

g Tile (15)
v 0 0 0 1 1 1
v -1 0 0 1 1 1
v 0 0.95 0 1 1 1
v -1 0.95 0 1 1 1
v -1 0 0 1 1 1
v -1 0 -1 1 1 1
v -1 0.95 0 1 1 1
v -1 0.95 -1 1 1 1
v -1 0 -1 1 1 1
v 0 0 -1 1 1 1
v -1 0.95 -1 1 1 1
v 0 0.95 -1 1 1 1
v 0 0 -1 1 1 1
v 0 0 0 1 1 1
v 0 0.95 -1 1 1 1
v 0 0.95 0 1 1 1
v -0.1167279 1.045464 -0.1167279 1 1 1
v -0.8832721 1.045464 -0.1167279 1 1 1
v -0.1167279 1.045464 -0.8832721 1 1 1
v -0.8832721 1.045464 -0.8832721 1 1 1
v 0 0 -1 1 1 1
v -1 0 -1 1 1 1
v 0 0 0 1 1 1
v -1 0 0 1 1 1
v -1 0.95 0 1 1 1
v 0 0.95 0 1 1 1
v -0.8832721 1.045464 -0.1167279 1 1 1
v -0.1167279 1.045464 -0.1167279 1 1 1
v 0 0.95 0 1 1 1
v 0 0.95 -1 1 1 1
v -0.1167279 1.045464 -0.1167279 1 1 1
v -0.1167279 1.045464 -0.8832721 1 1 1
v -1 0.95 -1 1 1 1
v -1 0.95 0 1 1 1
v -0.8832721 1.045464 -0.8832721 1 1 1
v -0.8832721 1.045464 -0.1167279 1 1 1
v 0 0.95 -1 1 1 1
v -1 0.95 -1 1 1 1
v -0.1167279 1.045464 -0.8832721 1 1 1
v -0.8832721 1.045464 -0.8832721 1 1 1

vn 0 0 1
vn 0 0 1
vn 0 0 1
vn 0 0 1
vn -1 0 0
vn -1 0 0
vn -1 0 0
vn -1 0 0
vn 0 0 -1
vn 0 0 -1
vn 0 0 -1
vn 0 0 -1
vn 1 0 0
vn 1 0 0
vn 1 0 0
vn 1 0 0
vn 0 1 0
vn 0 1 0
vn 0 1 0
vn 0 1 0
vn 0 -1 0
vn 0 -1 0
vn 0 -1 0
vn 0 -1 0
vn 0 0.7740908 0.6330746
vn 0 0.7740908 0.6330746
vn 0 0.7740908 0.6330746
vn 0 0.7740908 0.6330745
vn 0.6330746 0.7740908 0
vn 0.6330746 0.7740908 0
vn 0.6330746 0.7740908 0
vn 0.6330746 0.7740908 0
vn -0.6330745 0.7740909 0
vn -0.6330745 0.7740909 0
vn -0.6330745 0.7740909 0
vn -0.6330745 0.7740909 0
vn 0 0.7740909 -0.6330745
vn 0 0.7740909 -0.6330745
vn 0 0.7740909 -0.6330745
vn 0 0.7740909 -0.6330745

vt 0 0
vt -1 0
vt 0 0.95
vt -1 0.95
vt 0 0
vt -1 0
vt 0 0.95
vt -1 0.95
vt 1 0
vt 0 0
vt 1 0.95
vt 0 0.95
vt 1 0
vt 0 0
vt 1 0.95
vt 0 0.95
vt 0.05 -0.05
vt 0.95 -0.05
vt 0.05 -0.95
vt 0.95 -0.95
vt 0 -1
vt -1 -1
vt 0 0
vt -1 0
vt 1 -0.6014208
vt 0 -0.6014208
vt 0.8832721 -0.7522144
vt 0.1167279 -0.7522144
vt 0.6014208 0
vt 0.6014208 -1
vt 0.7522144 -0.1167279
vt 0.7522144 -0.8832721
vt 0.1726702 -1
vt 0.1726702 0
vt 0.02187656 -0.8832721
vt 0.02187656 -0.1167279
vt 0 -0.1726702
vt 1 -0.1726702
vt 0.1167279 -0.02187656
vt 0.8832721 -0.02187656

g Tile (15)
usemtl CementFloorMat
f 3/3/3 4/4/4 2/2/2 1/1/1
f 7/7/7 8/8/8 6/6/6 5/5/5
f 11/11/11 12/12/12 10/10/10 9/9/9
f 15/15/15 16/16/16 14/14/14 13/13/13
f 19/19/19 20/20/20 18/18/18 17/17/17
f 23/23/23 24/24/24 22/22/22 21/21/21
f 28/28/28 27/27/27 25/25/25 26/26/26
f 32/32/32 31/31/31 29/29/29 30/30/30
f 36/36/36 35/35/35 33/33/33 34/34/34
f 40/40/40 39/39/39 37/37/37 38/38/38

