# Exported from ProBuilder
# http://www.procore3d.com/probuilder
# 10/18/2018 2:45:07 PM

mtllib ./WallCube_obj.mtl
o WallCube_obj

g Cube
v -87.17149 -38 -23 1 1 1
v -87.25 -38 -23 1 1 1
v -87.25 -37.75 -23 1 1 1
v -87.17149 -37.75 -23 1 1 1
v -87.5 -38 -23 1 1 1
v -87.5 -37.75 -23 1 1 1
v -87.5 -37.5 -23 1 1 1
v -87.25 -37.5 -23 1 1 1
v -87.17149 -37.5 -23 1 1 1
v -87.75 -38 -23 1 1 1
v -87.75 -37.75 -23 1 1 1
v -88 -38 -23 1 1 1
v -88 -37.75 -23 1 1 1
v -88 -37.5 -23 1 1 1
v -87.75 -37.5 -23 1 1 1
v -87.75 -37.25 -23 1 1 1
v -87.5 -37.25 -23 1 1 1
v -88 -37.25 -23 1 1 1
v -88 -37 -23 1 1 1
v -87.75 -37 -23 1 1 1
v -87.5 -37 -23 1 1 1
v -87.25 -37.25 -23 1 1 1
v -87.17149 -37.25 -23 1 1 1
v -87.25 -37 -23 1 1 1
v -87.17149 -37 -23 1 1 1
v -88 -38 -23 1 1 1
v -88 -38 -23.25 1 1 1
v -88 -37.75 -23.25 1 1 1
v -88 -37.75 -23 1 1 1
v -88 -38 -23.5 1 1 1
v -88 -37.75 -23.5 1 1 1
v -88 -37.5 -23.5 1 1 1
v -88 -37.5 -23.25 1 1 1
v -88 -37.5 -23 1 1 1
v -88 -38 -23.75 1 1 1
v -88 -37.75 -23.75 1 1 1
v -88 -38 -24 1 1 1
v -88 -37.75 -24 1 1 1
v -88 -37.5 -24 1 1 1
v -88 -37.5 -23.75 1 1 1
v -88 -37.25 -23.75 1 1 1
v -88 -37.25 -23.5 1 1 1
v -88 -37.25 -24 1 1 1
v -88 -37 -24 1 1 1
v -88 -37 -23.75 1 1 1
v -88 -37 -23.5 1 1 1
v -88 -37.25 -23.25 1 1 1
v -88 -37.25 -23 1 1 1
v -88 -37 -23.25 1 1 1
v -88 -37 -23 1 1 1
v -87.75 -37.75 -24 1 1 1
v -87.5 -38 -24 1 1 1
v -87.5 -37.75 -24 1 1 1
v -87.75 -38 -24 1 1 1
v -87.75 -37.5 -24 1 1 1
v -87.5 -37.5 -24 1 1 1
v -88 -37.5 -24 1 1 1
v -88 -37.75 -24 1 1 1
v -88 -38 -24 1 1 1
v -87.25 -37.75 -24 1 1 1
v -87.17149 -38 -24 1 1 1
v -87.17149 -37.75 -24 1 1 1
v -87.25 -38 -24 1 1 1
v -87.25 -37.5 -24 1 1 1
v -87.17149 -37.5 -24 1 1 1
v -87.25 -37.25 -24 1 1 1
v -87.17149 -37.25 -24 1 1 1
v -87.25 -37 -24 1 1 1
v -87.17149 -37 -24 1 1 1
v -87.5 -37 -24 1 1 1
v -87.5 -37.25 -24 1 1 1
v -87.75 -37.25 -24 1 1 1
v -87.75 -37 -24 1 1 1
v -88 -37 -24 1 1 1
v -88 -37.25 -24 1 1 1
v -87.0218 -37.75 -23.75 1 1 1
v -87.17149 -38 -23.5 1 1 1
v -87.0218 -37.78149 -23.5 1 1 1
v -87.17149 -38 -23.75 1 1 1
v -87.0218 -37.5 -23.78148 1 1 1
v -87.0218 -37.78149 -23.5 1 1 1
v -87.11767 -37.5 -23.5 1 1 1
v -87.0218 -37.75 -23.75 1 1 1
v -87.17149 -37.5 -24 1 1 1
v -87.0218 -37.75 -23.75 1 1 1
v -87.0218 -37.5 -23.78148 1 1 1
v -87.17149 -37.75 -24 1 1 1
v -87.17149 -37.75 -24 1 1 1
v -87.17149 -38 -23.75 1 1 1
v -87.0218 -37.75 -23.75 1 1 1
v -87.17149 -38 -24 1 1 1
v -87.0218 -37.75 -23.25 1 1 1
v -87.17149 -38 -23 1 1 1
v -87.17149 -37.75 -23 1 1 1
v -87.17149 -38 -23.25 1 1 1
v -87.0218 -37.5 -23.20952 1 1 1
v -87.17149 -37.75 -23 1 1 1
v -87.17149 -37.5 -23 1 1 1
v -87.0218 -37.75 -23.25 1 1 1
v -87.11767 -37.5 -23.5 1 1 1
v -87.0218 -37.75 -23.25 1 1 1
v -87.0218 -37.5 -23.20952 1 1 1
v -87.0218 -37.78149 -23.5 1 1 1
v -87.0218 -37.78149 -23.5 1 1 1
v -87.17149 -38 -23.25 1 1 1
v -87.0218 -37.75 -23.25 1 1 1
v -87.17149 -38 -23.5 1 1 1
v -87.0218 -37.25 -23.25 1 1 1
v -87.17149 -37.5 -23 1 1 1
v -87.17149 -37.25 -23 1 1 1
v -87.0218 -37.5 -23.20952 1 1 1
v -87.17149 -37 -23.25 1 1 1
v -87.17149 -37.25 -23 1 1 1
v -87.17149 -37 -23 1 1 1
v -87.0218 -37.25 -23.25 1 1 1
v -87.17149 -37 -23.5 1 1 1
v -87.0218 -37.25 -23.25 1 1 1
v -87.17149 -37 -23.25 1 1 1
v -87.0218 -37.20951 -23.5 1 1 1
v -87.0218 -37.20951 -23.5 1 1 1
v -87.0218 -37.5 -23.20952 1 1 1
v -87.0218 -37.25 -23.25 1 1 1
v -87.11767 -37.5 -23.5 1 1 1
v -87.0218 -37.25 -23.75 1 1 1
v -87.11767 -37.5 -23.5 1 1 1
v -87.0218 -37.20951 -23.5 1 1 1
v -87.0218 -37.5 -23.78148 1 1 1
v -87.17149 -37 -23.75 1 1 1
v -87.0218 -37.20951 -23.5 1 1 1
v -87.17149 -37 -23.5 1 1 1
v -87.0218 -37.25 -23.75 1 1 1
v -87.17149 -37 -24 1 1 1
v -87.0218 -37.25 -23.75 1 1 1
v -87.17149 -37 -23.75 1 1 1
v -87.17149 -37.25 -24 1 1 1
v -87.17149 -37.25 -24 1 1 1
v -87.0218 -37.5 -23.78148 1 1 1
v -87.0218 -37.25 -23.75 1 1 1
v -87.17149 -37.5 -24 1 1 1
v -87.5 -37 -23.5 1 1 1
v -87.25 -37 -23.5 1 1 1
v -87.25 -37 -23.25 1 1 1
v -87.5 -37 -23.25 1 1 1
v -87.17149 -37 -23.5 1 1 1
v -87.17149 -37 -23.25 1 1 1
v -87.17149 -37 -23 1 1 1
v -87.25 -37 -23 1 1 1
v -87.5 -37 -23 1 1 1
v -88 -37 -23.5 1 1 1
v -87.75 -37 -23.5 1 1 1
v -87.75 -37 -23.25 1 1 1
v -88 -37 -23.25 1 1 1
v -87.75 -37 -23 1 1 1
v -88 -37 -23 1 1 1
v -88 -37 -24 1 1 1
v -87.75 -37 -24 1 1 1
v -87.75 -37 -23.75 1 1 1
v -88 -37 -23.75 1 1 1
v -87.5 -37 -24 1 1 1
v -87.5 -37 -23.75 1 1 1
v -87.25 -37 -24 1 1 1
v -87.25 -37 -23.75 1 1 1
v -87.17149 -37 -24 1 1 1
v -87.17149 -37 -23.75 1 1 1
v -87.25 -38 -23.75 1 1 1
v -87.5 -38 -24 1 1 1
v -87.5 -38 -23.75 1 1 1
v -87.25 -38 -24 1 1 1
v -87.25 -38 -23.5 1 1 1
v -87.5 -38 -23.5 1 1 1
v -87.17149 -38 -23.5 1 1 1
v -87.17149 -38 -23.75 1 1 1
v -87.17149 -38 -24 1 1 1
v -87.75 -38 -23.75 1 1 1
v -88 -38 -24 1 1 1
v -88 -38 -23.75 1 1 1
v -87.75 -38 -24 1 1 1
v -87.75 -38 -23.5 1 1 1
v -88 -38 -23.5 1 1 1
v -87.75 -38 -23.25 1 1 1
v -88 -38 -23.25 1 1 1
v -87.75 -38 -23 1 1 1
v -88 -38 -23 1 1 1
v -87.5 -38 -23 1 1 1
v -87.5 -38 -23.25 1 1 1
v -87.25 -38 -23.25 1 1 1
v -87.25 -38 -23 1 1 1
v -87.17149 -38 -23 1 1 1
v -87.17149 -38 -23.25 1 1 1

vn 0 0 1
vn 0 0 1
vn 0 0 1
vn 0 0 1
vn 0 0 1
vn 0 0 1
vn 0 0 1
vn 0 0 1
vn 0 0 1
vn 0 0 1
vn 0 0 1
vn 0 0 1
vn 0 0 1
vn 0 0 1
vn 0 0 1
vn 0 0 1
vn 0 0 1
vn 0 0 1
vn 0 0 1
vn 0 0 1
vn 0 0 1
vn 0 0 1
vn 0 0 1
vn 0 0 1
vn 0 0 1
vn -1 0 0
vn -1 0 0
vn -1 0 0
vn -1 0 0
vn -1 0 0
vn -1 0 0
vn -1 0 0
vn -1 0 0
vn -1 0 0
vn -1 0 0
vn -1 0 0
vn -1 0 0
vn -1 0 0
vn -1 0 0
vn -1 0 0
vn -1 0 0
vn -1 0 0
vn -1 0 0
vn -1 0 0
vn -1 0 0
vn -1 0 0
vn -1 0 0
vn -1 0 0
vn -1 0 0
vn -1 0 0
vn 0 0 -1
vn 0 0 -1
vn 0 0 -1
vn 0 0 -1
vn 0 0 -1
vn 0 0 -1
vn 0 0 -1
vn 0 0 -1
vn 0 0 -1
vn 0 0 -1
vn 0 0 -1
vn 0 0 -1
vn 0 0 -1
vn 0 0 -1
vn 0 0 -1
vn 0 0 -1
vn 0 0 -1
vn 0 0 -1
vn 0 0 -1
vn 0 0 -1
vn 0 0 -1
vn 0 0 -1
vn 0 0 -1
vn 0 0 -1
vn 0 0 -1
vn 0.8421699 -0.5381461 -0.0338928
vn 0.8421699 -0.5381461 -0.0338928
vn 0.8229042 -0.5637255 -0.0710076
vn 0.8579639 -0.51371 0
vn 0.9651458 0.185057 0.1850608
vn 0.9651458 0.185057 0.1850608
vn 0.9009378 0.3068446 0.3068508
vn 0.9999999 0 0
vn 0.842173 -0.03388635 -0.5381415
vn 0.842173 -0.03388635 -0.5381415
vn 0.822912 -0.07099352 -0.5637161
vn 0.8579639 0 -0.51371
vn 0.920866 -0.2756865 -0.2756865
vn 0.920866 -0.2756865 -0.2756865
vn 0.7631554 -0.456943 -0.456943
vn 1 0 0
vn 0.920866 -0.2756865 0.2756865
vn 0.920866 -0.2756865 0.2756865
vn 0.8579639 0 0.51371
vn 0.8579639 -0.51371 0
vn 0.8370507 -0.04415249 0.5453407
vn 0.8370507 -0.04415249 0.5453407
vn 0.8136734 0 0.5813223
vn 0.8550109 -0.08289684 0.5119419
vn 0.9651376 0.1879664 -0.1821483
vn 0.9651376 0.1879664 -0.1821483
vn 0.9483964 0.05068457 -0.3130102
vn 0.9458246 0.3221323 -0.04057621
vn 0.8421699 -0.5381461 0.0338928
vn 0.8421699 -0.5381461 0.0338928
vn 0.8561733 -0.512638 0.06457255
vn 0.8249867 -0.5651521 0
vn 0.8370507 0.04415249 0.5453407
vn 0.8370507 0.04415249 0.5453407
vn 0.8579639 0 0.51371
vn 0.8100923 0.09371706 0.5787638
vn 0.920866 0.2756865 0.2756865
vn 0.920866 0.2756865 0.2756865
vn 1 0 0
vn 0.7631554 0.456943 0.456943
vn 0.8370485 0.5453438 0.04415691
vn 0.8370485 0.5453438 0.04415691
vn 0.8579639 0.51371 0
vn 0.8100865 0.5787702 0.09372694
vn 0.9651458 -0.1850577 -0.1850601
vn 0.9651458 -0.1850577 -0.1850601
vn 1 0 0
vn 0.9061556 -0.299065 -0.299069
vn 0.9651376 -0.1821452 0.1879695
vn 0.9651376 -0.1821452 0.1879695
vn 0.9483974 -0.3130064 0.05068873
vn 0.945823 -0.04056958 0.3221383
vn 0.8370485 0.5453438 -0.04415691
vn 0.8370485 0.5453438 -0.04415691
vn 0.8136684 0.5813293 0
vn 0.8550103 0.5119416 -0.08290461
vn 0.920866 0.2756865 -0.2756865
vn 0.920866 0.2756865 -0.2756865
vn 0.8579639 0.51371 0
vn 0.8579639 0 -0.51371
vn 0.842173 0.03388635 -0.5381415
vn 0.842173 0.03388635 -0.5381415
vn 0.856174 0.06456088 -0.5126383
vn 0.8249936 0 -0.565142
vn 0 1 0
vn 0 1 0
vn 0 1 0
vn 0 1 0
vn 0 1 0
vn 0 1 0
vn 0 1 0
vn 0 1 0
vn 0 1 0
vn 0 1 0
vn 0 1 0
vn 0 1 0
vn 0 1 0
vn 0 1 0
vn 0 1 0
vn 0 1 0
vn 0 1 0
vn 0 1 0
vn 0 1 0
vn 0 1 0
vn 0 1 0
vn 0 1 0
vn 0 1 0
vn 0 1 0
vn 0 1 0
vn 0 -1 0
vn 0 -1 0
vn 0 -1 0
vn 0 -1 0
vn 0 -1 0
vn 0 -1 0
vn 0 -1 0
vn 0 -1 0
vn 0 -1 0
vn 0 -1 0
vn 0 -1 0
vn 0 -1 0
vn 0 -1 0
vn 0 -1 0
vn 0 -1 0
vn 0 -1 0
vn 0 -1 0
vn 0 -1 0
vn 0 -1 0
vn 0 -1 0
vn 0 -1 0
vn 0 -1 0
vn 0 -1 0
vn 0 -1 0
vn 0 -1 0

vt -0.1714859 0
vt -0.25 0
vt -0.25 0.25
vt -0.1714859 0.25
vt -0.5 0
vt -0.5 0.25
vt -0.5 0.5
vt -0.25 0.5
vt -0.1714859 0.5
vt -0.75 0
vt -0.75 0.25
vt -1 0
vt -1 0.25
vt -1 0.5
vt -0.75 0.5
vt -0.75 0.75
vt -0.5 0.75
vt -1 0.75
vt -1 1
vt -0.75 1
vt -0.5 1
vt -0.25 0.75
vt -0.1714859 0.75
vt -0.25 1
vt -0.1714859 1
vt 0 0
vt -0.25 0
vt -0.25 0.25
vt 0 0.25
vt -0.5 0
vt -0.5 0.25
vt -0.5 0.5
vt -0.25 0.5
vt 0 0.5
vt -0.75 0
vt -0.75 0.25
vt -1 0
vt -1 0.25
vt -1 0.5
vt -0.75 0.5
vt -0.75 0.75
vt -0.5 0.75
vt -1 0.75
vt -1 1
vt -0.75 1
vt -0.5 1
vt -0.25 0.75
vt 0 0.75
vt -0.25 1
vt 0 1
vt -0.75 0.25
vt -0.5 0
vt -0.5 0.25
vt -0.75 0
vt -0.75 0.5
vt -0.5 0.5
vt -1 0.5
vt -1 0.25
vt -1 0
vt -0.25 0.25
vt -0.1714859 0
vt -0.1714859 0.25
vt -0.25 0
vt -0.25 0.5
vt -0.1714859 0.5
vt -0.25 0.75
vt -0.1714859 0.75
vt -0.25 1
vt -0.1714859 1
vt -0.5 1
vt -0.5 0.75
vt -0.75 0.75
vt -0.75 1
vt -1 1
vt -1 0.75
vt -0.7500091 0.249991
vt -0.5000716 -7.157454E-05
vt -0.5000091 0.2185007
vt -0.7500716 -7.153088E-05
vt -0.7814937 0.499991
vt -0.5000091 0.2185007
vt -0.5000492 0.4999509
vt -0.7500091 0.249991
vt -1.000072 0.4999285
vt -0.7500091 0.249991
vt -0.7814937 0.499991
vt -1.000072 0.2499285
vt -1.000072 0.2499285
vt -0.7500716 -7.153088E-05
vt -0.7500091 0.249991
vt -1.000072 -7.148721E-05
vt -0.2500091 0.2499909
vt -7.167881E-05 -7.166188E-05
vt -7.167881E-05 0.2499283
vt -0.2500717 -7.161821E-05
vt -0.2095275 0.4999909
vt -7.167881E-05 0.2499283
vt -7.167881E-05 0.4999283
vt -0.2500091 0.2499909
vt -0.5000492 0.4999509
vt -0.2500091 0.2499909
vt -0.2095275 0.4999909
vt -0.5000091 0.2185007
vt -0.5000091 0.2185007
vt -0.2500717 -7.161821E-05
vt -0.2500091 0.2499909
vt -0.5000716 -7.157454E-05
vt -0.2500091 0.7499909
vt -7.167881E-05 0.4999283
vt -7.167881E-05 0.7499284
vt -0.2095275 0.4999909
vt -0.2500717 0.9999284
vt -7.167881E-05 0.7499284
vt -7.167881E-05 0.9999284
vt -0.2500091 0.7499909
vt -0.5000716 0.9999284
vt -0.2500091 0.7499909
vt -0.2500717 0.9999284
vt -0.5000091 0.7904764
vt -0.5000091 0.7904764
vt -0.2095275 0.4999909
vt -0.2500091 0.7499909
vt -0.5000492 0.4999509
vt -0.7500091 0.749991
vt -0.5000492 0.4999509
vt -0.5000091 0.7904764
vt -0.7814937 0.499991
vt -0.7500716 0.9999285
vt -0.5000091 0.7904764
vt -0.5000716 0.9999284
vt -0.7500091 0.749991
vt -1.000072 0.9999285
vt -0.7500091 0.749991
vt -0.7500716 0.9999285
vt -1.000072 0.7499285
vt -1.000072 0.7499285
vt -0.7814937 0.499991
vt -0.7500091 0.749991
vt -1.000072 0.4999285
vt 0.5 -0.5
vt 0.25 -0.5
vt 0.25 -0.25
vt 0.5 -0.25
vt 0.1714859 -0.5
vt 0.1714859 -0.25
vt 0.1714859 0
vt 0.25 0
vt 0.5 0
vt 1 -0.5
vt 0.75 -0.5
vt 0.75 -0.25
vt 1 -0.25
vt 0.75 0
vt 1 0
vt 1 -1
vt 0.75 -1
vt 0.75 -0.75
vt 1 -0.75
vt 0.5 -1
vt 0.5 -0.75
vt 0.25 -1
vt 0.25 -0.75
vt 0.1714859 -1
vt 0.1714859 -0.75
vt 0.25 -0.75
vt 0.5 -1
vt 0.5 -0.75
vt 0.25 -1
vt 0.25 -0.5
vt 0.5 -0.5
vt 0.1714859 -0.5
vt 0.1714859 -0.75
vt 0.1714859 -1
vt 0.75 -0.75
vt 1 -1
vt 1 -0.75
vt 0.75 -1
vt 0.75 -0.5
vt 1 -0.5
vt 0.75 -0.25
vt 1 -0.25
vt 0.75 0
vt 1 0
vt 0.5 0
vt 0.5 -0.25
vt 0.25 -0.25
vt 0.25 0
vt 0.1714859 0
vt 0.1714859 -0.25

g Cube
usemtl PolybrushMat
f 3/3/3 2/2/2 1/1/1
f 3/3/3 1/1/1 4/4/4
f 6/6/6 5/5/5 2/2/2
f 6/6/6 2/2/2 3/3/3
f 7/7/7 6/6/6 3/3/3
f 7/7/7 3/3/3 8/8/8
f 8/8/8 3/3/3 4/4/4
f 8/8/8 4/4/4 9/9/9
f 11/11/11 10/10/10 5/5/5
f 11/11/11 5/5/5 6/6/6
f 13/13/13 12/12/12 10/10/10
f 13/13/13 10/10/10 11/11/11
f 14/14/14 13/13/13 11/11/11
f 14/14/14 11/11/11 15/15/15
f 15/15/15 11/11/11 6/6/6
f 15/15/15 6/6/6 7/7/7
f 16/16/16 15/15/15 7/7/7
f 16/16/16 7/7/7 17/17/17
f 18/18/18 14/14/14 15/15/15
f 18/18/18 15/15/15 16/16/16
f 19/19/19 18/18/18 16/16/16
f 19/19/19 16/16/16 20/20/20
f 20/20/20 16/16/16 17/17/17
f 20/20/20 17/17/17 21/21/21
f 22/22/22 8/8/8 9/9/9
f 22/22/22 9/9/9 23/23/23
f 17/17/17 7/7/7 8/8/8
f 17/17/17 8/8/8 22/22/22
f 21/21/21 17/17/17 22/22/22
f 21/21/21 22/22/22 24/24/24
f 24/24/24 22/22/22 23/23/23
f 24/24/24 23/23/23 25/25/25
f 28/28/28 27/27/27 26/26/26
f 28/28/28 26/26/26 29/29/29
f 31/31/31 30/30/30 27/27/27
f 31/31/31 27/27/27 28/28/28
f 32/32/32 31/31/31 28/28/28
f 32/32/32 28/28/28 33/33/33
f 33/33/33 28/28/28 29/29/29
f 33/33/33 29/29/29 34/34/34
f 36/36/36 35/35/35 30/30/30
f 36/36/36 30/30/30 31/31/31
f 38/38/38 37/37/37 35/35/35
f 38/38/38 35/35/35 36/36/36
f 39/39/39 38/38/38 36/36/36
f 39/39/39 36/36/36 40/40/40
f 40/40/40 36/36/36 31/31/31
f 40/40/40 31/31/31 32/32/32
f 41/41/41 40/40/40 32/32/32
f 41/41/41 32/32/32 42/42/42
f 43/43/43 39/39/39 40/40/40
f 43/43/43 40/40/40 41/41/41
f 44/44/44 43/43/43 41/41/41
f 44/44/44 41/41/41 45/45/45
f 45/45/45 41/41/41 42/42/42
f 45/45/45 42/42/42 46/46/46
f 47/47/47 33/33/33 34/34/34
f 47/47/47 34/34/34 48/48/48
f 42/42/42 32/32/32 33/33/33
f 42/42/42 33/33/33 47/47/47
f 46/46/46 42/42/42 47/47/47
f 46/46/46 47/47/47 49/49/49
f 49/49/49 47/47/47 48/48/48
f 49/49/49 48/48/48 50/50/50
f 53/53/53 52/52/52 51/51/51
f 52/52/52 54/54/54 51/51/51
f 56/56/56 53/53/53 55/55/55
f 53/53/53 51/51/51 55/55/55
f 55/55/55 51/51/51 57/57/57
f 51/51/51 58/58/58 57/57/57
f 51/51/51 54/54/54 58/58/58
f 54/54/54 59/59/59 58/58/58
f 62/62/62 61/61/61 60/60/60
f 61/61/61 63/63/63 60/60/60
f 65/65/65 62/62/62 64/64/64
f 62/62/62 60/60/60 64/64/64
f 64/64/64 60/60/60 56/56/56
f 60/60/60 53/53/53 56/56/56
f 60/60/60 63/63/63 53/53/53
f 63/63/63 52/52/52 53/53/53
f 67/67/67 65/65/65 66/66/66
f 65/65/65 64/64/64 66/66/66
f 69/69/69 67/67/67 68/68/68
f 67/67/67 66/66/66 68/68/68
f 68/68/68 66/66/66 70/70/70
f 66/66/66 71/71/71 70/70/70
f 66/66/66 64/64/64 71/71/71
f 64/64/64 56/56/56 71/71/71
f 71/71/71 56/56/56 72/72/72
f 56/56/56 55/55/55 72/72/72
f 70/70/70 71/71/71 73/73/73
f 71/71/71 72/72/72 73/73/73
f 73/73/73 72/72/72 74/74/74
f 72/72/72 75/75/75 74/74/74
f 72/72/72 55/55/55 75/75/75
f 55/55/55 57/57/57 75/75/75
f 78/78/78 77/77/77 76/76/76
f 77/77/77 79/79/79 76/76/76
f 82/82/82 81/81/81 80/80/80
f 81/81/81 83/83/83 80/80/80
f 86/86/86 85/85/85 84/84/84
f 85/85/85 87/87/87 84/84/84
f 90/90/90 89/89/89 88/88/88
f 89/89/89 91/91/91 88/88/88
f 94/94/94 93/93/93 92/92/92
f 93/93/93 95/95/95 92/92/92
f 98/98/98 97/97/97 96/96/96
f 97/97/97 99/99/99 96/96/96
f 102/102/102 101/101/101 100/100/100
f 101/101/101 103/103/103 100/100/100
f 106/106/106 105/105/105 104/104/104
f 105/105/105 107/107/107 104/104/104
f 110/110/110 109/109/109 108/108/108
f 109/109/109 111/111/111 108/108/108
f 114/114/114 113/113/113 112/112/112
f 113/113/113 115/115/115 112/112/112
f 118/118/118 117/117/117 116/116/116
f 117/117/117 119/119/119 116/116/116
f 122/122/122 121/121/121 120/120/120
f 121/121/121 123/123/123 120/120/120
f 126/126/126 125/125/125 124/124/124
f 125/125/125 127/127/127 124/124/124
f 130/130/130 129/129/129 128/128/128
f 129/129/129 131/131/131 128/128/128
f 134/134/134 133/133/133 132/132/132
f 133/133/133 135/135/135 132/132/132
f 138/138/138 137/137/137 136/136/136
f 137/137/137 139/139/139 136/136/136
f 142/142/142 141/141/141 140/140/140
f 142/142/142 140/140/140 143/143/143
f 145/145/145 144/144/144 141/141/141
f 145/145/145 141/141/141 142/142/142
f 146/146/146 145/145/145 142/142/142
f 146/146/146 142/142/142 147/147/147
f 147/147/147 142/142/142 143/143/143
f 147/147/147 143/143/143 148/148/148
f 151/151/151 150/150/150 149/149/149
f 151/151/151 149/149/149 152/152/152
f 143/143/143 140/140/140 150/150/150
f 143/143/143 150/150/150 151/151/151
f 148/148/148 143/143/143 151/151/151
f 148/148/148 151/151/151 153/153/153
f 153/153/153 151/151/151 152/152/152
f 153/153/153 152/152/152 154/154/154
f 157/157/157 156/156/156 155/155/155
f 157/157/157 155/155/155 158/158/158
f 160/160/160 159/159/159 156/156/156
f 160/160/160 156/156/156 157/157/157
f 140/140/140 160/160/160 157/157/157
f 140/140/140 157/157/157 150/150/150
f 150/150/150 157/157/157 158/158/158
f 150/150/150 158/158/158 149/149/149
f 162/162/162 161/161/161 159/159/159
f 162/162/162 159/159/159 160/160/160
f 164/164/164 163/163/163 161/161/161
f 164/164/164 161/161/161 162/162/162
f 144/144/144 164/164/164 162/162/162
f 144/144/144 162/162/162 141/141/141
f 141/141/141 162/162/162 160/160/160
f 141/141/141 160/160/160 140/140/140
f 167/167/167 166/166/166 165/165/165
f 166/166/166 168/168/168 165/165/165
f 170/170/170 167/167/167 169/169/169
f 167/167/167 165/165/165 169/169/169
f 169/169/169 165/165/165 171/171/171
f 165/165/165 172/172/172 171/171/171
f 165/165/165 168/168/168 172/172/172
f 168/168/168 173/173/173 172/172/172
f 176/176/176 175/175/175 174/174/174
f 175/175/175 177/177/177 174/174/174
f 179/179/179 176/176/176 178/178/178
f 176/176/176 174/174/174 178/178/178
f 178/178/178 174/174/174 170/170/170
f 174/174/174 167/167/167 170/170/170
f 174/174/174 177/177/177 167/167/167
f 177/177/177 166/166/166 167/167/167
f 181/181/181 179/179/179 180/180/180
f 179/179/179 178/178/178 180/180/180
f 183/183/183 181/181/181 182/182/182
f 181/181/181 180/180/180 182/182/182
f 182/182/182 180/180/180 184/184/184
f 180/180/180 185/185/185 184/184/184
f 180/180/180 178/178/178 185/185/185
f 178/178/178 170/170/170 185/185/185
f 185/185/185 170/170/170 186/186/186
f 170/170/170 169/169/169 186/186/186
f 184/184/184 185/185/185 187/187/187
f 185/185/185 186/186/186 187/187/187
f 187/187/187 186/186/186 188/188/188
f 186/186/186 189/189/189 188/188/188
f 186/186/186 169/169/169 189/189/189
f 169/169/169 171/171/171 189/189/189

